<svg id="svg" xmlns="http://www.w3.org/2000/svg" xmlns:xlink="http://www.w3.org/1999/xlink" width="400" height="216" viewBox="0, 0, 400,216"><g id="svgg"><path id="path0" d="M199.993 51.169 C 199.751 51.373,199.420 51.880,199.257 52.296 C 199.094 52.712,198.834 53.158,198.679 53.286 C 198.523 53.415,198.294 53.755,198.170 54.042 C 198.045 54.330,197.652 55.051,197.295 55.646 C 196.938 56.240,196.503 57.035,196.328 57.414 C 196.152 57.792,195.913 58.160,195.795 58.233 C 195.678 58.305,195.385 58.774,195.143 59.274 C 194.902 59.774,194.469 60.573,194.181 61.048 C 193.894 61.524,193.304 62.593,192.872 63.425 C 192.439 64.257,191.957 65.038,191.799 65.160 C 191.642 65.282,191.157 66.122,190.721 67.027 C 190.286 67.932,189.740 68.844,189.509 69.053 C 189.277 69.263,189.087 69.602,189.087 69.807 C 189.087 70.012,188.946 70.296,188.774 70.439 C 188.602 70.582,188.351 71.032,188.217 71.438 C 188.083 71.845,187.880 72.177,187.766 72.177 C 187.652 72.177,187.376 72.604,187.152 73.126 C 186.929 73.648,186.640 74.140,186.512 74.219 C 186.383 74.299,186.278 74.509,186.278 74.687 C 186.278 74.866,185.840 75.637,185.305 76.403 C 184.770 77.168,184.333 77.927,184.333 78.090 C 184.333 78.253,184.157 78.618,183.941 78.901 C 183.434 79.569,182.466 81.232,181.171 83.662 C 181.003 83.976,180.722 84.353,180.547 84.499 C 180.371 84.645,180.227 84.933,180.227 85.140 C 180.227 85.348,180.038 85.757,179.808 86.050 C 179.578 86.342,179.324 86.842,179.244 87.159 L 179.100 87.736 200.409 87.736 C 223.485 87.736,222.236 87.805,221.286 86.597 C 221.048 86.295,220.854 85.956,220.854 85.844 C 220.854 85.733,220.656 85.414,220.416 85.136 C 220.175 84.859,219.920 84.382,219.849 84.077 C 219.779 83.772,219.607 83.425,219.468 83.306 C 219.328 83.187,218.591 81.972,217.831 80.605 C 217.070 79.238,216.373 78.068,216.282 78.004 C 216.191 77.941,215.965 77.552,215.780 77.140 C 215.596 76.728,215.069 75.794,214.610 75.063 C 214.152 74.333,213.512 73.195,213.189 72.536 C 212.866 71.876,212.525 71.306,212.430 71.270 C 212.260 71.206,211.757 70.300,210.953 68.609 C 210.726 68.131,210.381 67.609,210.186 67.448 C 209.992 67.286,209.833 67.033,209.833 66.885 C 209.833 66.738,209.638 66.370,209.400 66.067 C 209.163 65.765,208.968 65.377,208.968 65.204 C 208.968 65.031,208.678 64.524,208.323 64.078 C 207.969 63.632,207.412 62.719,207.086 62.049 C 206.760 61.380,206.140 60.297,205.708 59.643 C 205.276 58.990,204.847 58.212,204.753 57.915 C 204.660 57.619,204.457 57.278,204.302 57.159 C 204.148 57.040,203.666 56.261,203.231 55.429 C 202.796 54.598,202.231 53.573,201.976 53.152 C 201.251 51.955,200.501 50.783,200.465 50.791 C 200.447 50.795,200.234 50.965,199.993 51.169 " stroke="none" fill="#04f7a8" fill-rule="evenodd"></path><path id="path1" d="M222.955 99.055 L 222.356 99.610 222.415 116.922 C 222.473 133.772,222.485 134.241,222.894 134.539 C 223.239 134.791,224.769 134.846,231.480 134.846 L 239.646 134.846 239.764 134.360 C 239.829 134.092,239.855 128.574,239.822 122.096 L 239.762 110.319 234.053 110.261 C 230.283 110.223,228.247 110.122,228.057 109.964 C 227.832 109.778,227.769 108.622,227.769 104.698 C 227.769 98.529,227.837 98.695,225.250 98.577 C 223.675 98.506,223.511 98.540,222.955 99.055 M135.848 104.344 C 135.325 104.921,135.402 134.302,135.927 134.636 C 136.122 134.760,139.558 134.822,144.561 134.790 L 152.871 134.738 153.021 134.198 C 153.336 133.067,153.239 114.606,152.917 114.339 C 152.709 114.166,151.225 114.109,148.001 114.150 L 143.382 114.209 143.382 116.478 L 143.382 118.747 145.543 118.806 C 148.412 118.885,148.244 118.550,148.244 124.190 C 148.244 130.085,148.501 129.720,144.428 129.622 C 141.835 129.559,141.475 129.505,141.203 129.132 C 140.704 128.449,140.752 109.735,141.254 109.319 C 141.531 109.089,142.802 109.010,146.926 108.967 C 153.861 108.896,153.216 109.129,153.208 106.695 C 153.197 103.679,154.043 103.944,144.418 103.944 C 136.704 103.944,136.188 103.968,135.848 104.344 M161.048 110.354 C 160.654 110.513,160.654 133.947,161.048 134.484 C 161.296 134.821,162.002 134.847,169.530 134.795 L 177.742 134.738 177.742 122.528 L 177.742 110.319 175.473 110.319 L 173.204 110.319 173.096 119.654 C 173.012 126.900,172.925 129.053,172.707 129.271 C 172.226 129.753,166.687 129.794,166.162 129.319 C 165.767 128.961,165.748 128.537,165.748 119.837 C 165.748 113.041,165.682 110.664,165.489 110.470 C 165.233 110.214,161.629 110.119,161.048 110.354 M185.683 110.353 C 185.225 110.539,185.296 134.539,185.755 134.715 C 186.298 134.923,189.594 134.860,189.951 134.635 C 190.230 134.459,190.284 133.113,190.333 125.076 C 190.402 113.857,190.007 114.965,193.932 114.965 C 197.674 114.965,197.280 113.812,197.349 124.967 C 197.416 135.977,197.069 134.870,200.432 134.793 L 202.809 134.738 202.866 125.179 L 202.922 115.620 203.449 115.275 C 204.125 114.832,209.204 114.896,209.660 115.354 C 209.879 115.573,209.954 117.674,210.003 124.959 C 210.076 135.760,209.842 134.846,212.534 134.846 C 215.279 134.846,215.031 136.125,214.967 122.288 L 214.911 110.319 200.432 110.281 C 192.469 110.260,185.832 110.293,185.683 110.353 M247.480 110.468 C 247.190 110.757,247.126 133.172,247.411 134.198 L 247.561 134.738 256.088 134.738 L 264.614 134.738 264.614 122.528 L 264.614 110.319 256.178 110.262 C 249.796 110.220,247.678 110.270,247.480 110.468 M234.420 115.301 C 234.898 115.637,234.900 115.660,234.900 122.319 L 234.900 129.000 234.262 129.330 C 233.510 129.719,228.867 129.800,228.187 129.436 C 227.570 129.106,227.532 115.557,228.147 115.198 C 228.792 114.823,233.855 114.906,234.420 115.301 M259.708 115.440 C 259.899 115.631,259.968 117.492,259.968 122.469 L 259.968 129.238 259.413 129.449 C 258.594 129.761,253.416 129.721,253.096 129.400 C 252.905 129.210,252.836 127.359,252.836 122.420 C 252.836 117.481,252.905 115.631,253.096 115.440 C 253.273 115.263,254.320 115.181,256.402 115.181 C 258.484 115.181,259.531 115.263,259.708 115.440 " stroke="none" fill="#2d04e5" fill-rule="evenodd"></path><path id="path2" d="M189.353 14.046 C 189.101 14.451,188.849 14.479,185.426 14.479 C 181.717 14.479,180.659 14.643,180.659 15.220 C 180.659 15.464,180.315 15.554,179.200 15.603 C 177.875 15.661,177.735 15.712,177.673 16.153 C 177.606 16.620,177.518 16.640,175.475 16.640 C 173.167 16.640,172.663 16.741,172.663 17.203 C 172.663 17.415,172.382 17.504,171.716 17.504 C 170.956 17.504,170.701 17.606,170.431 18.018 C 170.144 18.456,169.878 18.546,168.642 18.625 C 167.446 18.701,167.133 18.801,166.874 19.191 C 166.630 19.559,166.348 19.665,165.614 19.665 C 164.812 19.665,164.668 19.731,164.668 20.097 C 164.668 20.463,164.524 20.529,163.733 20.529 C 163.015 20.529,162.680 20.655,162.291 21.070 C 161.947 21.436,161.552 21.610,161.064 21.610 C 160.646 21.610,160.174 21.782,159.935 22.021 C 159.709 22.247,159.320 22.496,159.070 22.576 C 158.816 22.656,158.617 22.903,158.617 23.137 C 158.617 23.499,158.459 23.555,157.446 23.555 C 155.997 23.555,155.592 23.702,155.592 24.226 C 155.592 24.497,155.439 24.635,155.139 24.635 C 154.873 24.635,154.642 24.808,154.577 25.056 C 154.494 25.373,154.245 25.493,153.570 25.542 C 152.846 25.595,152.662 25.696,152.609 26.068 C 152.559 26.419,152.343 26.561,151.705 26.663 C 151.128 26.755,150.823 26.932,150.729 27.229 C 150.629 27.544,150.402 27.661,149.889 27.661 C 149.409 27.661,149.038 27.832,148.717 28.201 C 148.458 28.498,148.101 28.741,147.921 28.741 C 147.740 28.741,147.596 28.932,147.596 29.173 C 147.596 29.488,147.452 29.606,147.067 29.606 C 146.776 29.606,146.275 29.849,145.955 30.146 C 145.634 30.443,145.247 30.686,145.094 30.686 C 144.941 30.686,144.756 30.874,144.683 31.105 C 144.610 31.335,144.336 31.554,144.074 31.591 C 143.772 31.634,143.573 31.836,143.529 32.145 C 143.485 32.457,143.311 32.631,143.043 32.631 C 142.770 32.631,142.626 32.780,142.626 33.063 C 142.626 33.366,142.481 33.496,142.139 33.498 C 141.310 33.503,140.681 33.748,140.681 34.066 C 140.681 34.234,140.438 34.463,140.140 34.576 C 139.810 34.702,139.600 34.951,139.600 35.219 C 139.600 35.542,139.458 35.656,139.060 35.656 C 138.664 35.656,138.520 35.772,138.520 36.089 C 138.520 36.377,138.376 36.521,138.088 36.521 C 137.771 36.521,137.655 36.665,137.655 37.061 C 137.655 37.493,137.547 37.601,137.115 37.601 C 136.683 37.601,136.575 37.709,136.575 38.142 C 136.575 38.569,136.466 38.682,136.052 38.682 C 135.328 38.682,134.846 38.894,134.846 39.214 C 134.846 39.575,133.934 40.540,133.421 40.722 C 132.883 40.912,131.605 42.674,131.605 43.224 C 131.605 43.537,131.459 43.652,131.064 43.652 C 130.668 43.652,130.524 43.767,130.524 44.084 C 130.524 44.372,130.380 44.516,130.092 44.516 C 129.775 44.516,129.660 44.661,129.660 45.057 C 129.660 45.489,129.552 45.597,129.119 45.597 C 128.687 45.597,128.579 45.705,128.579 46.137 C 128.579 46.541,128.465 46.677,128.127 46.677 C 127.863 46.677,127.629 46.850,127.566 47.090 C 127.507 47.316,127.273 47.550,127.046 47.610 C 126.806 47.672,126.634 47.907,126.634 48.170 C 126.634 48.470,126.496 48.622,126.225 48.622 C 125.759 48.622,125.554 49.025,125.554 49.937 C 125.554 50.421,125.455 50.567,125.126 50.567 C 124.849 50.567,124.650 50.759,124.562 51.108 C 124.477 51.446,124.273 51.648,124.018 51.648 C 123.729 51.648,123.609 51.802,123.609 52.173 C 123.609 52.509,123.453 52.749,123.177 52.836 C 122.879 52.931,122.703 53.236,122.609 53.823 C 122.507 54.461,122.372 54.673,122.069 54.673 C 121.784 54.673,121.664 54.829,121.664 55.198 C 121.664 55.579,121.530 55.743,121.178 55.793 C 120.794 55.847,120.678 56.022,120.627 56.625 C 120.582 57.168,120.425 57.449,120.087 57.598 C 119.825 57.713,119.580 58.025,119.542 58.293 C 119.504 58.560,119.344 58.779,119.187 58.779 C 118.837 58.779,118.639 59.255,118.639 60.093 C 118.639 60.514,118.529 60.724,118.310 60.724 C 118.129 60.724,117.870 60.967,117.735 61.264 C 117.599 61.561,117.410 61.804,117.313 61.804 C 116.998 61.804,116.478 63.061,116.478 63.821 C 116.478 64.382,116.372 64.591,116.045 64.676 C 115.740 64.756,115.613 64.971,115.613 65.407 C 115.613 65.813,115.428 66.163,115.073 66.430 C 114.644 66.752,114.533 67.026,114.533 67.763 C 114.533 68.501,114.444 68.719,114.100 68.828 C 113.767 68.934,113.668 69.155,113.668 69.800 C 113.668 70.501,113.590 70.645,113.182 70.704 C 112.726 70.768,112.692 70.890,112.634 72.649 C 112.576 74.399,112.539 74.531,112.093 74.594 C 111.701 74.650,111.604 74.823,111.550 75.559 C 111.501 76.233,111.380 76.482,111.064 76.565 C 110.702 76.659,110.643 76.869,110.643 78.065 C 110.643 79.338,110.597 79.476,110.103 79.701 C 109.612 79.925,109.562 80.069,109.562 81.269 C 109.562 82.387,109.499 82.607,109.150 82.698 C 108.607 82.840,108.488 83.362,108.485 85.615 C 108.482 87.300,108.438 87.505,108.050 87.628 C 107.661 87.752,107.618 87.955,107.618 89.669 C 107.618 91.404,107.574 91.602,107.131 91.896 C 106.681 92.194,106.640 92.406,106.572 94.732 C 106.532 96.114,106.416 97.245,106.312 97.245 C 105.800 97.245,105.675 99.320,105.674 107.855 C 105.673 116.536,105.780 118.206,106.342 118.206 C 106.449 118.206,106.537 119.327,106.537 120.697 C 106.537 123.155,106.544 123.190,107.077 123.393 C 107.597 123.590,107.618 123.670,107.618 125.496 C 107.618 127.131,107.675 127.431,108.030 127.652 C 108.388 127.876,108.453 128.229,108.517 130.317 C 108.583 132.506,108.634 132.760,109.076 133.117 C 109.454 133.423,109.562 133.734,109.562 134.512 C 109.562 135.293,109.682 135.633,110.103 136.054 C 110.569 136.520,110.643 136.788,110.643 138.010 C 110.643 139.243,110.698 139.439,111.075 139.538 C 111.335 139.606,111.508 139.834,111.510 140.112 C 111.516 141.002,111.770 141.545,112.181 141.545 C 112.541 141.545,112.588 141.720,112.588 143.058 C 112.588 144.527,112.603 144.571,113.128 144.571 C 113.624 144.571,113.668 144.650,113.668 145.543 C 113.668 146.371,113.732 146.515,114.100 146.515 C 114.464 146.515,114.533 146.660,114.536 147.434 C 114.540 148.720,114.729 149.289,115.204 149.440 C 115.429 149.512,115.613 149.762,115.613 149.997 C 115.613 150.231,115.808 150.632,116.045 150.887 C 116.283 151.142,116.479 151.600,116.481 151.905 C 116.486 152.838,116.714 153.386,117.146 153.498 C 117.386 153.561,117.558 153.795,117.558 154.059 C 117.558 154.397,117.694 154.511,118.098 154.511 C 118.596 154.511,118.639 154.589,118.639 155.504 C 118.639 156.315,118.718 156.517,119.071 156.609 C 119.310 156.672,119.503 156.904,119.503 157.129 C 119.503 157.420,119.658 157.536,120.043 157.536 C 120.532 157.536,120.583 157.621,120.583 158.424 C 120.583 159.113,120.704 159.406,121.124 159.736 C 121.475 160.012,121.664 160.377,121.664 160.779 C 121.664 161.207,121.797 161.439,122.096 161.534 C 122.334 161.610,122.528 161.813,122.528 161.986 C 122.528 162.160,122.771 162.394,123.069 162.507 C 123.449 162.651,123.609 162.874,123.609 163.260 C 123.609 163.561,123.812 163.977,124.061 164.184 C 124.309 164.390,124.599 164.778,124.704 165.046 C 124.809 165.313,125.036 165.532,125.209 165.532 C 125.382 165.532,125.555 165.751,125.593 166.018 C 125.637 166.331,125.836 166.529,126.148 166.574 C 126.455 166.617,126.634 166.792,126.634 167.049 C 126.634 167.272,126.877 167.717,127.175 168.038 C 127.472 168.358,127.715 168.801,127.715 169.021 C 127.715 169.270,127.870 169.422,128.122 169.422 C 128.352 169.422,128.580 169.617,128.646 169.870 C 128.710 170.117,128.965 170.371,129.211 170.436 C 129.474 170.504,129.660 170.729,129.660 170.980 C 129.660 171.219,129.842 171.455,130.072 171.515 C 130.299 171.574,130.534 171.816,130.596 172.051 C 130.658 172.287,130.910 172.532,131.156 172.597 C 131.410 172.663,131.605 172.891,131.605 173.121 C 131.605 173.379,131.757 173.528,132.022 173.528 C 132.290 173.528,132.464 173.702,132.508 174.014 C 132.551 174.318,132.751 174.525,133.041 174.566 C 133.296 174.603,133.555 174.822,133.615 175.053 C 133.680 175.300,133.911 175.473,134.177 175.473 C 134.516 175.473,134.630 175.609,134.630 176.013 C 134.630 176.417,134.744 176.553,135.082 176.553 C 135.346 176.553,135.580 176.725,135.643 176.965 C 135.702 177.192,135.936 177.426,136.163 177.485 C 136.403 177.548,136.575 177.782,136.575 178.046 C 136.575 178.384,136.711 178.498,137.115 178.498 C 137.505 178.498,137.655 178.614,137.655 178.916 C 137.655 179.145,137.839 179.392,138.064 179.463 C 138.289 179.535,138.523 179.784,138.584 180.018 C 138.650 180.270,138.880 180.443,139.149 180.443 C 139.399 180.443,139.814 180.686,140.073 180.983 C 140.331 181.280,140.761 181.524,141.029 181.524 C 141.369 181.524,141.536 181.670,141.584 182.010 C 141.628 182.322,141.827 182.521,142.139 182.565 C 142.407 182.603,142.626 182.770,142.626 182.936 C 142.626 183.320,143.302 183.684,144.016 183.684 C 144.410 183.684,144.571 183.799,144.571 184.081 C 144.571 184.550,145.713 185.629,146.210 185.629 C 146.400 185.629,146.607 185.824,146.669 186.062 C 146.731 186.299,146.961 186.494,147.179 186.494 C 147.398 186.494,147.819 186.737,148.116 187.034 C 148.534 187.452,148.879 187.574,149.639 187.574 C 150.543 187.574,150.621 187.618,150.621 188.115 C 150.621 188.500,150.738 188.655,151.028 188.655 C 151.254 188.655,151.486 188.848,151.548 189.087 C 151.641 189.440,151.843 189.519,152.654 189.519 C 153.569 189.519,153.647 189.562,153.647 190.059 C 153.647 190.492,153.755 190.600,154.187 190.600 C 154.527 190.600,154.727 190.722,154.727 190.929 C 154.727 191.348,155.593 191.680,156.686 191.680 C 157.392 191.680,157.536 191.753,157.536 192.112 C 157.536 192.480,157.681 192.545,158.494 192.545 C 159.322 192.545,159.461 192.610,159.520 193.031 C 159.567 193.359,159.764 193.542,160.124 193.592 C 160.419 193.634,160.789 193.853,160.947 194.079 C 161.170 194.397,161.500 194.489,162.411 194.489 C 163.522 194.489,163.587 194.520,163.587 195.030 C 163.587 195.525,163.667 195.570,164.545 195.570 C 165.293 195.570,165.531 195.659,165.632 195.976 C 165.766 196.397,166.571 196.650,167.776 196.650 C 168.220 196.650,168.547 196.800,168.723 197.083 C 168.909 197.379,169.227 197.515,169.738 197.515 C 170.244 197.515,170.656 197.688,171.023 198.055 C 171.520 198.553,171.720 198.595,173.538 198.595 C 175.300 198.595,175.525 198.640,175.621 199.008 C 175.748 199.495,176.289 199.669,177.688 199.673 C 178.569 199.675,178.714 199.737,178.714 200.108 C 178.714 200.522,178.858 200.540,182.157 200.540 C 185.562 200.540,185.600 200.545,185.668 201.026 C 185.735 201.493,185.834 201.515,188.145 201.574 C 190.331 201.629,190.563 201.674,190.664 202.060 C 190.840 202.732,209.895 202.726,210.315 202.053 C 210.553 201.671,210.819 201.621,212.596 201.621 C 214.464 201.621,214.643 201.582,215.108 201.080 C 215.597 200.553,215.683 200.540,218.663 200.540 C 221.430 200.540,221.759 200.499,222.150 200.108 C 222.410 199.848,222.871 199.676,223.306 199.676 C 224.286 199.676,225.392 199.268,225.392 198.907 C 225.392 198.685,225.861 198.597,227.283 198.550 C 229.006 198.493,229.192 198.444,229.387 198.001 C 229.560 197.606,229.773 197.515,230.521 197.515 C 231.298 197.515,231.442 197.447,231.442 197.083 C 231.442 196.711,231.587 196.650,232.469 196.649 C 233.786 196.648,235.039 196.299,235.196 195.890 C 235.276 195.680,235.620 195.570,236.195 195.570 C 236.919 195.570,237.113 195.477,237.316 195.030 C 237.518 194.587,237.716 194.489,238.413 194.489 C 239.073 194.489,239.287 194.396,239.373 194.069 C 239.455 193.752,239.705 193.632,240.379 193.582 C 241.065 193.532,241.325 193.403,241.488 193.031 C 241.606 192.763,241.873 192.545,242.083 192.545 C 242.316 192.545,242.464 192.382,242.464 192.122 C 242.464 191.751,242.641 191.692,243.922 191.636 C 245.248 191.578,245.387 191.528,245.450 191.086 C 245.500 190.731,245.664 190.600,246.055 190.600 C 246.349 190.600,246.815 190.357,247.091 190.059 C 247.381 189.746,247.831 189.519,248.161 189.519 C 248.474 189.519,248.915 189.334,249.141 189.108 C 249.367 188.882,249.756 188.633,250.006 188.554 C 250.255 188.474,250.459 188.227,250.459 188.004 C 250.459 187.682,250.647 187.586,251.378 187.533 C 252.141 187.477,252.308 187.384,252.365 186.980 C 252.415 186.628,252.579 186.494,252.959 186.494 C 253.335 186.494,253.485 186.374,253.485 186.075 C 253.485 185.746,253.660 185.641,254.295 185.588 C 254.891 185.539,255.162 185.392,255.319 185.035 C 255.436 184.768,255.713 184.549,255.933 184.549 C 256.154 184.549,256.385 184.354,256.447 184.117 C 256.510 183.879,256.732 183.684,256.943 183.684 C 257.153 183.684,257.480 183.448,257.669 183.159 C 257.866 182.858,258.269 182.604,258.612 182.565 C 258.978 182.523,259.292 182.312,259.419 182.023 C 259.533 181.763,259.800 181.505,260.013 181.449 C 260.226 181.393,260.400 181.200,260.400 181.019 C 260.400 180.837,260.619 180.658,260.886 180.620 C 261.198 180.576,261.397 180.377,261.441 180.065 C 261.485 179.759,261.660 179.579,261.914 179.579 C 262.136 179.579,263.010 178.898,263.857 178.066 C 264.704 177.234,265.518 176.553,265.665 176.553 C 266.133 176.553,266.451 176.056,266.451 175.321 C 266.451 174.678,266.512 174.608,267.081 174.608 C 268.168 174.608,268.395 174.417,268.395 173.505 C 268.395 172.765,268.457 172.663,268.904 172.663 C 269.601 172.663,270.556 171.732,270.556 171.053 C 270.556 170.646,270.670 170.502,270.989 170.502 C 271.272 170.502,271.421 170.358,271.421 170.085 C 271.421 169.817,271.595 169.643,271.907 169.599 C 272.220 169.555,272.418 169.356,272.462 169.044 C 272.506 168.733,272.681 168.558,272.944 168.558 C 273.205 168.558,273.408 168.358,273.493 168.017 C 273.578 167.679,273.782 167.477,274.037 167.477 C 274.345 167.477,274.446 167.321,274.446 166.844 C 274.446 166.427,274.630 166.067,274.986 165.787 C 275.284 165.553,275.527 165.217,275.527 165.040 C 275.527 164.863,275.720 164.668,275.956 164.606 C 276.193 164.544,276.477 164.254,276.588 163.962 C 276.699 163.669,276.944 163.371,277.131 163.299 C 277.318 163.227,277.472 162.988,277.472 162.767 C 277.472 162.547,277.715 162.138,278.012 161.858 C 278.309 161.579,278.552 161.185,278.552 160.982 C 278.552 160.778,278.747 160.561,278.984 160.499 C 279.222 160.437,279.417 160.236,279.417 160.052 C 279.417 159.868,279.660 159.474,279.957 159.177 C 280.254 158.880,280.497 158.400,280.497 158.112 C 280.497 157.771,280.647 157.548,280.923 157.475 C 281.226 157.396,281.390 157.107,281.491 156.478 C 281.598 155.806,281.731 155.592,282.037 155.592 C 282.325 155.592,282.442 155.435,282.442 155.051 C 282.442 154.721,282.565 154.511,282.758 154.511 C 283.239 154.511,283.522 153.795,283.522 152.580 C 283.522 151.557,283.558 151.486,284.063 151.486 C 284.495 151.486,284.603 151.378,284.603 150.945 C 284.603 150.549,284.718 150.405,285.035 150.405 C 285.423 150.405,285.467 150.261,285.467 149.016 C 285.467 147.739,285.507 147.620,285.954 147.557 C 286.262 147.513,286.464 147.314,286.507 147.012 C 286.545 146.750,286.764 146.476,286.994 146.403 C 287.364 146.286,287.412 146.061,287.412 144.463 C 287.412 142.753,287.438 142.652,287.898 142.587 C 288.312 142.528,288.394 142.367,288.450 141.505 C 288.505 140.650,288.590 140.481,288.990 140.424 C 289.414 140.364,289.472 140.209,289.530 138.983 C 289.584 137.833,289.664 137.591,290.016 137.499 C 290.361 137.409,290.438 137.198,290.438 136.334 C 290.438 135.596,290.525 135.278,290.727 135.278 C 291.244 135.278,291.518 134.218,291.518 132.220 C 291.518 130.389,291.553 130.235,292.058 129.837 C 292.481 129.505,292.599 129.215,292.599 128.507 C 292.599 127.837,292.710 127.533,293.031 127.333 C 293.442 127.076,293.463 126.829,293.463 122.310 L 293.463 117.558 294.005 117.558 L 294.548 117.558 294.492 107.672 L 294.435 97.785 293.949 97.716 C 293.463 97.647,293.463 97.647,293.463 93.212 C 293.463 88.958,293.445 88.772,293.031 88.663 C 292.672 88.570,292.599 88.369,292.599 87.481 C 292.599 86.289,292.312 85.575,291.835 85.575 C 291.576 85.575,291.518 85.142,291.518 83.202 C 291.518 80.851,291.513 80.828,290.978 80.694 C 290.504 80.575,290.438 80.441,290.438 79.609 C 290.438 78.804,290.372 78.660,290.005 78.660 C 289.615 78.660,289.573 78.516,289.573 77.162 C 289.573 75.486,289.309 74.554,288.835 74.554 C 288.616 74.554,288.497 74.269,288.451 73.636 C 288.396 72.872,288.303 72.706,287.898 72.648 C 287.451 72.585,287.412 72.467,287.412 71.169 C 287.412 69.970,287.351 69.744,287.005 69.653 C 286.725 69.580,286.554 69.275,286.458 68.679 C 286.360 68.067,286.194 67.779,285.893 67.700 C 285.555 67.612,285.467 67.403,285.467 66.682 C 285.467 66.088,285.325 65.623,285.054 65.332 C 284.827 65.088,284.608 64.656,284.568 64.373 C 284.528 64.089,284.281 63.763,284.019 63.648 C 283.661 63.491,283.527 63.223,283.479 62.568 C 283.426 61.852,283.327 61.684,282.928 61.627 C 282.516 61.569,282.442 61.426,282.442 60.689 C 282.442 60.022,282.348 59.795,282.039 59.714 C 281.798 59.651,281.533 59.267,281.382 58.761 C 281.242 58.296,281.030 57.915,280.909 57.915 C 280.789 57.915,280.589 57.623,280.465 57.266 C 280.320 56.852,280.090 56.618,279.828 56.618 C 279.503 56.618,279.417 56.461,279.417 55.869 C 279.417 55.351,279.288 55.052,278.999 54.897 C 278.770 54.775,278.551 54.455,278.513 54.187 C 278.469 53.874,278.270 53.676,277.958 53.632 C 277.637 53.586,277.472 53.414,277.472 53.125 C 277.472 52.875,277.293 52.641,277.055 52.579 C 276.770 52.504,276.593 52.205,276.497 51.636 C 276.404 51.082,276.217 50.757,275.941 50.670 C 275.713 50.597,275.527 50.396,275.527 50.223 C 275.527 50.050,275.284 49.816,274.986 49.703 C 274.656 49.577,274.446 49.328,274.446 49.060 C 274.446 48.766,274.304 48.622,274.014 48.622 C 273.717 48.622,273.582 48.478,273.582 48.161 C 273.582 47.907,273.350 47.485,273.067 47.222 C 272.784 46.960,272.487 46.540,272.408 46.290 C 272.328 46.040,272.084 45.778,271.865 45.709 C 271.647 45.639,271.418 45.391,271.356 45.158 C 271.295 44.924,271.101 44.733,270.924 44.733 C 270.748 44.733,270.542 44.489,270.468 44.192 C 270.382 43.852,270.179 43.652,269.919 43.652 C 269.655 43.652,269.481 43.476,269.437 43.166 C 269.393 42.853,269.194 42.655,268.882 42.611 C 268.560 42.565,268.395 42.393,268.395 42.104 C 268.395 41.848,268.216 41.620,267.963 41.554 C 267.724 41.491,267.531 41.259,267.531 41.034 C 267.531 40.744,267.376 40.627,266.991 40.627 C 266.587 40.627,266.451 40.513,266.451 40.174 C 266.451 39.911,266.278 39.677,266.038 39.614 C 265.812 39.555,265.578 39.321,265.518 39.094 C 265.458 38.863,265.222 38.682,264.982 38.682 C 264.704 38.682,264.505 38.491,264.417 38.142 C 264.329 37.793,264.130 37.601,263.853 37.601 C 263.577 37.601,263.425 37.456,263.425 37.193 C 263.425 36.937,263.223 36.733,262.885 36.648 C 262.588 36.574,262.345 36.375,262.345 36.207 C 262.345 36.039,262.150 35.840,261.912 35.764 C 261.674 35.689,261.379 35.439,261.256 35.210 C 261.133 34.980,260.914 34.792,260.770 34.792 C 260.625 34.792,260.231 34.500,259.895 34.144 C 259.558 33.787,259.096 33.495,258.869 33.495 C 258.599 33.495,258.455 33.345,258.455 33.063 C 258.455 32.773,258.311 32.631,258.017 32.631 C 257.749 32.631,257.500 32.422,257.374 32.091 C 257.202 31.638,257.028 31.551,256.299 31.551 C 255.516 31.551,255.429 31.497,255.429 31.010 C 255.429 30.625,255.313 30.470,255.023 30.470 C 254.797 30.470,254.565 30.277,254.502 30.038 C 254.436 29.783,254.208 29.606,253.947 29.606 C 253.703 29.606,253.261 29.363,252.964 29.065 C 252.667 28.768,252.225 28.525,251.982 28.525 C 251.684 28.525,251.540 28.384,251.540 28.093 C 251.540 27.726,251.396 27.661,250.591 27.661 C 249.759 27.661,249.625 27.594,249.506 27.120 C 249.419 26.772,249.219 26.580,248.942 26.580 C 248.703 26.580,248.514 26.435,248.514 26.251 C 248.514 25.887,247.684 25.500,246.905 25.500 C 246.591 25.500,246.363 25.343,246.294 25.082 C 246.215 24.777,245.959 24.646,245.351 24.596 C 244.675 24.540,244.503 24.435,244.447 24.041 C 244.388 23.625,244.247 23.555,243.473 23.555 C 242.809 23.555,242.497 23.442,242.304 23.133 C 242.159 22.902,241.707 22.649,241.300 22.573 C 240.826 22.484,240.520 22.285,240.451 22.022 C 240.364 21.692,240.145 21.610,239.350 21.610 C 238.605 21.610,238.358 21.528,238.358 21.280 C 238.358 20.918,237.528 20.529,236.756 20.529 C 236.485 20.529,236.088 20.335,235.873 20.097 C 235.596 19.791,235.207 19.665,234.542 19.665 C 234.026 19.665,233.603 19.575,233.603 19.464 C 233.603 18.912,232.873 18.585,231.643 18.585 C 230.520 18.585,230.362 18.533,230.362 18.166 C 230.362 17.831,230.155 17.716,229.335 17.595 C 228.771 17.512,228.077 17.262,227.794 17.041 C 227.380 16.719,226.901 16.640,225.372 16.640 C 223.628 16.640,223.421 16.594,222.926 16.099 C 222.507 15.681,222.164 15.559,221.397 15.559 C 220.723 15.559,220.369 15.457,220.285 15.239 C 220.072 14.683,218.689 14.481,215.087 14.480 C 211.781 14.479,211.583 14.455,211.453 14.046 C 211.238 13.367,189.777 13.367,189.353 14.046 M206.654 27.012 C 206.759 27.416,206.948 27.445,209.517 27.445 C 212.174 27.445,212.285 27.463,212.769 27.985 C 213.250 28.504,213.372 28.525,215.892 28.525 C 218.317 28.525,218.544 28.560,218.892 28.991 C 219.173 29.338,219.580 29.482,220.494 29.558 C 221.286 29.623,221.718 29.756,221.718 29.933 C 221.718 30.345,222.239 30.470,223.953 30.470 C 225.355 30.470,225.526 30.517,225.719 30.956 C 225.882 31.329,226.142 31.458,226.828 31.508 C 227.502 31.557,227.752 31.677,227.834 31.994 C 227.933 32.370,228.143 32.415,229.801 32.415 C 231.638 32.415,231.659 32.421,231.659 32.955 C 231.659 33.383,231.768 33.495,232.184 33.495 C 232.509 33.495,232.759 33.651,232.839 33.902 C 232.969 34.313,233.775 34.576,234.902 34.576 C 235.316 34.576,235.532 34.708,235.611 35.008 C 235.677 35.262,235.906 35.440,236.165 35.440 C 236.408 35.440,236.869 35.683,237.190 35.981 C 237.626 36.385,238.009 36.521,238.713 36.521 C 239.510 36.521,239.654 36.587,239.654 36.953 C 239.654 37.191,239.752 37.385,239.872 37.385 C 239.991 37.385,240.301 37.628,240.559 37.925 C 240.907 38.325,241.243 38.466,241.854 38.466 C 242.520 38.466,242.680 38.545,242.680 38.875 C 242.680 39.341,243.082 39.546,243.994 39.546 C 244.480 39.546,244.625 39.645,244.625 39.978 C 244.625 40.347,244.769 40.411,245.597 40.411 C 246.460 40.411,246.570 40.465,246.572 40.897 C 246.579 41.992,246.805 42.321,247.650 42.464 C 248.208 42.558,248.507 42.736,248.581 43.019 C 248.645 43.263,248.877 43.436,249.142 43.436 C 249.445 43.436,249.595 43.574,249.595 43.854 C 249.595 44.097,249.798 44.335,250.081 44.425 C 250.348 44.509,250.692 44.755,250.844 44.971 C 250.996 45.187,251.457 45.427,251.870 45.504 C 252.283 45.582,252.620 45.770,252.620 45.922 C 252.620 46.322,253.814 47.542,254.205 47.542 C 254.386 47.542,254.566 47.761,254.604 48.028 C 254.648 48.341,254.847 48.539,255.159 48.583 C 255.472 48.628,255.646 48.802,255.646 49.070 C 255.646 49.344,255.795 49.487,256.083 49.487 C 256.351 49.487,256.600 49.696,256.726 50.027 C 256.839 50.324,257.080 50.567,257.261 50.567 C 257.446 50.567,257.590 50.756,257.590 50.999 C 257.590 51.316,257.735 51.432,258.131 51.432 C 258.521 51.432,258.671 51.548,258.671 51.849 C 258.671 52.079,258.859 52.327,259.089 52.400 C 259.320 52.473,259.538 52.747,259.576 53.009 C 259.619 53.311,259.821 53.510,260.130 53.554 C 260.442 53.598,260.616 53.772,260.616 54.040 C 260.616 54.308,260.765 54.457,261.033 54.457 C 261.301 54.457,261.475 54.631,261.519 54.943 C 261.563 55.251,261.762 55.454,262.061 55.497 C 262.356 55.539,262.560 55.742,262.602 56.037 C 262.644 56.336,262.847 56.535,263.155 56.579 C 263.563 56.637,263.641 56.782,263.641 57.483 C 263.641 58.112,263.742 58.350,264.050 58.447 C 264.275 58.519,264.509 58.769,264.570 59.002 C 264.635 59.249,264.866 59.427,265.121 59.427 C 265.472 59.427,265.573 59.589,265.627 60.238 C 265.676 60.833,265.823 61.105,266.180 61.261 C 266.448 61.379,266.667 61.640,266.667 61.841 C 266.667 62.043,266.861 62.269,267.099 62.345 C 267.378 62.433,267.531 62.672,267.531 63.018 C 267.531 63.313,267.774 63.779,268.071 64.055 C 268.368 64.330,268.612 64.763,268.612 65.017 C 268.612 65.324,268.747 65.478,269.016 65.478 C 269.323 65.478,269.455 65.693,269.562 66.364 C 269.663 66.994,269.828 67.283,270.130 67.362 C 270.404 67.434,270.556 67.658,270.556 67.988 C 270.556 68.394,270.672 68.504,271.097 68.504 C 271.593 68.504,271.637 68.583,271.637 69.476 C 271.637 70.147,271.766 70.577,272.052 70.863 C 272.280 71.092,272.499 71.505,272.538 71.782 C 272.577 72.059,272.828 72.381,273.096 72.499 C 273.492 72.672,273.582 72.885,273.582 73.643 C 273.582 74.359,273.707 74.691,274.122 75.076 C 274.419 75.351,274.662 75.762,274.662 75.990 C 274.662 76.218,274.857 76.544,275.095 76.715 C 275.344 76.895,275.527 77.275,275.527 77.613 C 275.527 78.469,275.899 79.308,276.278 79.308 C 276.542 79.308,276.607 79.612,276.607 80.841 C 276.607 82.179,276.661 82.388,277.028 82.484 C 277.345 82.567,277.465 82.817,277.514 83.491 C 277.568 84.227,277.665 84.399,278.059 84.455 C 278.517 84.520,278.541 84.630,278.599 86.940 C 278.658 89.261,278.680 89.360,279.146 89.426 C 279.597 89.490,279.633 89.604,279.633 90.993 C 279.633 92.327,279.678 92.491,280.049 92.491 C 280.448 92.491,280.468 92.732,280.535 98.245 C 280.604 103.936,280.610 104.003,281.091 104.322 C 281.557 104.631,281.578 104.772,281.578 107.684 C 281.578 110.538,281.548 110.755,281.091 111.240 C 280.617 111.745,280.603 111.893,280.538 117.337 C 280.475 122.537,280.442 122.943,280.052 123.297 C 279.747 123.572,279.633 123.961,279.633 124.723 C 279.633 125.604,279.568 125.770,279.226 125.770 C 278.668 125.770,278.559 126.325,278.555 129.158 C 278.552 131.498,278.537 131.577,278.066 131.644 C 277.748 131.689,277.555 131.886,277.508 132.216 C 277.469 132.493,277.250 132.906,277.022 133.135 C 276.693 133.463,276.607 133.858,276.607 135.039 C 276.607 136.447,276.578 136.535,276.067 136.664 C 275.606 136.779,275.527 136.923,275.527 137.645 C 275.527 138.301,275.430 138.521,275.095 138.628 C 274.748 138.738,274.662 138.955,274.662 139.723 C 274.662 140.250,274.572 140.681,274.462 140.681 C 274.055 140.681,273.582 141.378,273.582 141.978 C 273.582 142.401,273.449 142.639,273.161 142.730 C 272.863 142.825,272.699 143.138,272.599 143.805 C 272.499 144.477,272.340 144.778,272.048 144.855 C 271.729 144.938,271.637 145.159,271.637 145.847 C 271.637 146.585,271.566 146.731,271.209 146.731 C 270.921 146.731,270.733 146.926,270.636 147.326 C 270.556 147.653,270.262 148.195,269.983 148.531 C 269.669 148.910,269.476 149.423,269.476 149.882 C 269.476 150.477,269.392 150.621,269.044 150.621 C 268.730 150.621,268.612 150.765,268.612 151.147 C 268.612 151.527,268.477 151.691,268.125 151.741 C 267.721 151.798,267.628 151.965,267.573 152.728 C 267.519 153.471,267.426 153.647,267.086 153.647 C 266.783 153.647,266.667 153.796,266.667 154.187 C 266.667 154.619,266.559 154.727,266.126 154.727 C 265.701 154.727,265.586 154.837,265.586 155.242 C 265.586 155.570,265.434 155.797,265.168 155.867 C 264.896 155.938,264.701 156.241,264.608 156.736 C 264.516 157.227,264.319 157.535,264.053 157.604 C 263.819 157.666,263.641 157.901,263.641 158.150 C 263.641 158.394,263.455 158.647,263.220 158.722 C 262.989 158.795,262.739 159.045,262.665 159.276 C 262.592 159.508,262.354 159.697,262.137 159.697 C 261.685 159.697,261.480 160.107,261.480 161.012 C 261.480 161.581,261.411 161.642,260.767 161.642 C 259.865 161.642,259.535 161.972,259.535 162.874 C 259.535 163.448,259.449 163.587,259.093 163.587 C 258.523 163.587,257.590 164.520,257.590 165.090 C 257.590 165.345,257.449 165.532,257.256 165.532 C 256.795 165.532,255.646 166.146,255.646 166.392 C 255.646 166.720,254.573 167.693,254.211 167.693 C 254.027 167.693,253.824 167.895,253.759 168.142 C 253.694 168.389,253.412 168.678,253.131 168.785 C 252.850 168.892,252.620 169.121,252.620 169.294 C 252.620 169.467,252.431 169.669,252.199 169.743 C 251.967 169.816,251.718 170.066,251.644 170.297 C 251.570 170.532,251.317 170.719,251.073 170.719 C 250.817 170.719,250.588 170.898,250.522 171.151 C 250.460 171.388,250.261 171.583,250.081 171.583 C 249.900 171.583,249.535 171.818,249.269 172.105 C 249.003 172.391,248.554 172.659,248.272 172.699 C 247.932 172.747,247.735 172.936,247.689 173.258 C 247.639 173.610,247.475 173.744,247.095 173.744 C 246.713 173.744,246.569 173.862,246.569 174.176 C 246.569 174.496,246.425 174.608,246.015 174.608 C 245.290 174.608,244.625 174.974,244.625 175.372 C 244.625 175.546,244.484 175.689,244.313 175.689 C 244.141 175.689,243.874 175.869,243.718 176.088 C 243.563 176.308,243.061 176.557,242.602 176.643 C 242.050 176.745,241.731 176.935,241.661 177.204 C 241.603 177.427,241.346 177.639,241.091 177.676 C 240.800 177.717,240.601 177.924,240.558 178.228 C 240.498 178.649,240.360 178.714,239.531 178.714 C 238.718 178.714,238.574 178.779,238.574 179.146 C 238.574 179.480,238.430 179.579,237.943 179.579 C 237.031 179.579,236.629 179.784,236.629 180.250 C 236.629 180.582,236.469 180.659,235.779 180.659 C 234.685 180.659,233.820 180.991,233.820 181.410 C 233.820 181.632,233.608 181.740,233.171 181.740 C 232.667 181.740,232.523 181.836,232.523 182.172 C 232.523 182.556,232.379 182.604,231.222 182.604 C 230.043 182.604,229.897 182.655,229.674 183.144 C 229.467 183.600,229.281 183.684,228.490 183.684 C 227.697 183.684,227.553 183.751,227.553 184.117 C 227.553 184.494,227.408 184.549,226.418 184.550 C 224.958 184.552,223.663 184.911,223.663 185.315 C 223.663 185.545,223.387 185.631,222.636 185.636 C 221.613 185.643,220.854 185.996,220.854 186.464 C 220.854 186.631,220.173 186.710,218.722 186.710 C 216.917 186.710,216.506 186.776,216.040 187.142 C 215.589 187.498,215.164 187.574,213.648 187.574 C 211.638 187.574,210.697 187.814,210.697 188.325 C 210.697 188.616,209.453 188.655,200.108 188.655 C 190.953 188.655,189.519 188.612,189.519 188.338 C 189.519 187.784,188.738 187.574,186.668 187.574 C 184.887 187.574,184.622 187.524,184.383 187.142 C 184.141 186.755,183.879 186.710,181.869 186.710 C 179.656 186.710,179.624 186.703,179.490 186.170 C 179.363 185.663,179.268 185.629,177.947 185.629 C 176.804 185.629,176.513 185.558,176.400 185.251 C 176.187 184.674,175.895 184.556,174.670 184.552 C 173.766 184.550,173.497 184.463,173.312 184.117 C 173.140 183.796,172.859 183.684,172.224 183.684 C 171.615 183.684,171.367 183.593,171.367 183.368 C 171.367 182.887,170.651 182.604,169.436 182.604 C 168.486 182.604,168.341 182.547,168.341 182.172 C 168.341 181.804,168.197 181.740,167.369 181.740 C 166.559 181.740,166.397 181.671,166.397 181.331 C 166.397 180.855,165.993 180.659,165.012 180.659 C 164.544 180.659,164.142 180.480,163.803 180.119 C 163.524 179.822,163.070 179.579,162.793 179.579 C 162.508 179.579,162.291 179.449,162.291 179.278 C 162.291 178.870,161.809 178.714,160.544 178.714 C 159.575 178.714,159.481 178.670,159.481 178.210 C 159.481 177.416,158.357 176.553,157.322 176.553 C 156.600 176.553,156.456 176.481,156.456 176.121 C 156.456 175.841,156.312 175.689,156.047 175.689 C 155.791 175.689,155.588 175.487,155.503 175.149 C 155.383 174.673,155.252 174.608,154.399 174.608 C 153.615 174.608,153.431 174.535,153.431 174.224 C 153.431 174.012,153.236 173.699,152.998 173.528 C 152.761 173.356,152.566 173.092,152.566 172.940 C 152.566 172.788,152.323 172.663,152.026 172.663 C 151.696 172.663,151.486 172.540,151.486 172.347 C 151.486 172.173,151.284 171.922,151.037 171.790 C 150.790 171.658,150.401 171.363,150.173 171.134 C 149.944 170.906,149.618 170.719,149.448 170.719 C 149.279 170.719,148.949 170.475,148.715 170.178 C 148.481 169.881,148.141 169.638,147.958 169.638 C 147.775 169.638,147.595 169.419,147.557 169.152 C 147.513 168.839,147.314 168.641,147.002 168.597 C 146.689 168.552,146.515 168.378,146.515 168.110 C 146.515 167.809,146.365 167.693,145.975 167.693 C 145.571 167.693,145.435 167.579,145.435 167.241 C 145.435 166.988,145.264 166.744,145.048 166.687 C 144.836 166.632,144.568 166.373,144.454 166.113 C 144.296 165.752,144.029 165.624,143.328 165.574 C 142.410 165.507,142.410 165.507,142.410 164.635 C 142.410 163.950,142.319 163.739,141.984 163.652 C 141.751 163.591,141.501 163.357,141.430 163.132 C 141.358 162.907,141.112 162.723,140.882 162.723 C 140.581 162.723,140.465 162.573,140.465 162.183 C 140.465 161.798,140.348 161.642,140.058 161.642 C 139.828 161.642,139.600 161.448,139.533 161.194 C 139.469 160.948,139.214 160.693,138.968 160.629 C 138.715 160.562,138.520 160.335,138.520 160.104 C 138.520 159.814,138.365 159.697,137.979 159.697 C 137.523 159.697,137.439 159.597,137.439 159.049 C 137.439 158.693,137.254 158.216,137.028 157.990 C 136.802 157.764,136.553 157.375,136.474 157.126 C 136.393 156.871,136.146 156.672,135.912 156.672 C 135.611 156.672,135.494 156.522,135.494 156.132 C 135.494 155.700,135.386 155.592,134.954 155.592 C 134.469 155.592,134.414 155.504,134.414 154.742 C 134.414 154.089,134.316 153.861,133.993 153.758 C 133.761 153.685,133.513 153.440,133.441 153.214 C 133.370 152.989,133.122 152.744,132.890 152.671 C 132.581 152.573,132.469 152.341,132.469 151.803 C 132.469 151.290,132.339 150.999,132.037 150.837 C 131.799 150.710,131.605 150.426,131.605 150.206 C 131.605 149.986,131.361 149.647,131.064 149.453 C 130.767 149.258,130.524 148.914,130.524 148.689 C 130.524 147.994,130.280 147.596,129.853 147.596 C 129.588 147.596,129.444 147.444,129.444 147.164 C 129.444 146.885,129.299 146.731,129.038 146.731 C 128.701 146.731,128.615 146.524,128.531 145.501 C 128.452 144.551,128.323 144.200,127.964 143.962 C 127.699 143.786,127.499 143.426,127.499 143.125 C 127.499 142.424,127.127 141.761,126.735 141.761 C 126.550 141.761,126.418 141.558,126.418 141.273 C 126.418 141.004,126.235 140.671,126.012 140.531 C 125.699 140.335,125.585 139.947,125.514 138.829 C 125.440 137.667,125.328 137.306,124.947 136.998 C 124.687 136.786,124.473 136.410,124.473 136.162 C 124.473 135.824,124.337 135.710,123.933 135.710 C 123.396 135.710,123.393 135.697,123.393 133.745 C 123.393 131.962,123.353 131.770,122.961 131.667 C 122.597 131.572,122.528 131.372,122.528 130.406 C 122.528 129.309,122.177 128.579,121.649 128.579 C 121.538 128.579,121.448 127.565,121.448 126.318 C 121.448 124.277,121.406 124.034,121.016 123.825 C 120.637 123.622,120.583 123.372,120.583 121.802 C 120.583 120.170,120.535 119.965,120.043 119.503 L 119.503 118.995 119.503 107.806 L 119.503 96.616 120.043 96.076 C 120.539 95.580,120.583 95.377,120.583 93.595 C 120.583 91.845,120.626 91.642,121.016 91.518 C 121.415 91.391,121.448 91.191,121.448 88.910 L 121.448 86.440 121.988 86.440 C 122.489 86.440,122.528 86.364,122.528 85.411 C 122.528 84.617,122.627 84.321,122.961 84.113 C 123.329 83.882,123.393 83.609,123.393 82.247 C 123.393 80.726,123.418 80.646,123.933 80.516 C 124.409 80.397,124.473 80.265,124.473 79.412 C 124.473 78.608,124.542 78.444,124.880 78.444 C 125.360 78.444,125.547 77.886,125.551 76.445 C 125.553 75.564,125.615 75.419,125.986 75.419 C 126.271 75.419,126.418 75.275,126.418 74.996 C 126.418 74.764,126.661 74.331,126.958 74.034 C 127.322 73.670,127.499 73.254,127.499 72.761 C 127.499 72.312,127.660 71.882,127.915 71.651 C 128.144 71.444,128.394 70.904,128.471 70.450 C 128.565 69.890,128.743 69.591,129.027 69.517 C 129.268 69.454,129.444 69.221,129.444 68.964 C 129.444 68.719,129.634 68.417,129.866 68.292 C 130.101 68.167,130.352 67.733,130.429 67.320 C 130.514 66.871,130.726 66.523,130.964 66.448 C 131.181 66.379,131.419 66.046,131.494 65.707 C 131.568 65.368,131.818 64.920,132.049 64.711 C 132.342 64.445,132.469 64.047,132.469 63.392 C 132.469 62.604,132.537 62.453,132.891 62.453 C 133.473 62.453,134.414 61.461,134.414 60.847 C 134.414 60.524,134.569 60.301,134.846 60.229 C 135.084 60.167,135.278 59.961,135.278 59.772 C 135.278 59.582,135.419 59.427,135.590 59.427 C 136.006 59.427,136.575 58.588,136.575 57.975 C 136.575 57.627,136.701 57.482,137.007 57.482 C 137.297 57.482,137.439 57.338,137.439 57.045 C 137.439 56.777,137.649 56.528,137.979 56.402 C 138.277 56.289,138.520 56.055,138.520 55.882 C 138.520 55.708,138.714 55.505,138.952 55.429 C 139.190 55.354,139.384 55.140,139.384 54.953 C 139.384 54.767,139.627 54.389,139.924 54.114 C 140.228 53.832,140.465 53.372,140.465 53.063 C 140.465 52.620,140.570 52.512,141.005 52.512 C 141.437 52.512,141.545 52.404,141.545 51.972 C 141.545 51.576,141.660 51.432,141.977 51.432 C 142.265 51.432,142.410 51.288,142.410 50.999 C 142.410 50.683,142.554 50.567,142.950 50.567 C 143.382 50.567,143.490 50.459,143.490 50.027 C 143.490 49.634,143.606 49.487,143.915 49.487 C 144.148 49.487,144.561 49.292,144.833 49.053 C 145.105 48.814,145.591 48.384,145.914 48.097 C 146.237 47.810,146.699 47.513,146.941 47.436 C 147.183 47.359,147.380 47.109,147.380 46.879 C 147.380 46.599,147.529 46.461,147.832 46.461 C 148.093 46.461,148.330 46.290,148.391 46.056 C 148.449 45.832,148.732 45.543,149.019 45.412 C 149.306 45.281,149.541 45.026,149.541 44.845 C 149.541 44.664,149.697 44.516,149.888 44.516 C 150.079 44.516,150.418 44.284,150.641 44.001 C 150.864 43.717,151.291 43.423,151.590 43.348 C 151.889 43.273,152.134 43.111,152.134 42.988 C 152.134 42.866,152.426 42.664,152.782 42.539 C 153.196 42.395,153.431 42.165,153.431 41.902 C 153.431 41.608,153.584 41.491,153.971 41.491 C 154.403 41.491,154.511 41.383,154.511 40.951 C 154.511 40.455,154.590 40.411,155.484 40.411 C 156.312 40.411,156.456 40.347,156.456 39.978 C 156.456 39.661,156.600 39.546,156.996 39.546 C 157.428 39.546,157.536 39.438,157.536 39.006 C 157.536 38.510,157.616 38.466,158.509 38.466 C 159.318 38.466,159.481 38.397,159.481 38.058 C 159.481 37.762,159.690 37.610,160.235 37.508 C 160.655 37.429,161.089 37.179,161.215 36.944 C 161.382 36.632,161.669 36.521,162.304 36.521 C 163.024 36.521,163.199 36.432,163.371 35.981 C 163.497 35.650,163.746 35.440,164.014 35.440 C 164.308 35.440,164.452 35.298,164.452 35.008 C 164.452 34.629,164.596 34.576,165.623 34.576 C 167.072 34.576,167.477 34.429,167.477 33.904 C 167.477 33.581,167.635 33.495,168.238 33.495 C 168.840 33.495,169.050 33.383,169.245 32.955 C 169.473 32.456,169.602 32.415,170.969 32.415 C 172.303 32.415,172.447 32.373,172.447 31.983 C 172.447 31.615,172.591 31.551,173.420 31.551 C 174.313 31.551,174.392 31.506,174.392 31.010 C 174.392 30.474,174.405 30.470,176.357 30.470 C 178.141 30.470,178.333 30.430,178.435 30.038 C 178.531 29.674,178.730 29.606,179.694 29.606 C 181.108 29.606,181.524 29.457,181.524 28.950 C 181.524 28.591,181.798 28.551,184.685 28.487 C 187.686 28.421,187.863 28.392,188.169 27.931 C 188.472 27.474,188.640 27.445,190.950 27.445 C 193.265 27.445,193.409 27.419,193.409 27.012 C 193.409 26.590,193.553 26.580,199.975 26.580 C 206.359 26.580,206.544 26.592,206.654 27.012 M198.865 44.660 C 198.717 44.720,198.595 45.045,198.595 45.383 C 198.595 45.781,198.405 46.147,198.055 46.423 C 197.636 46.753,197.515 47.046,197.515 47.735 C 197.515 48.478,197.445 48.622,197.083 48.622 C 196.807 48.622,196.650 48.766,196.650 49.020 C 196.650 49.239,196.407 49.528,196.110 49.664 C 195.664 49.867,195.570 50.061,195.570 50.779 C 195.570 51.487,195.494 51.648,195.161 51.648 C 194.904 51.648,194.702 51.851,194.615 52.194 C 194.540 52.494,194.286 52.931,194.052 53.166 C 193.755 53.462,193.625 53.885,193.625 54.550 C 193.625 55.378,193.560 55.517,193.139 55.577 C 192.826 55.621,192.628 55.819,192.584 56.132 C 192.541 56.432,192.365 56.618,192.123 56.618 C 191.708 56.618,191.472 57.182,191.467 58.185 C 191.465 58.568,191.349 58.779,191.140 58.779 C 190.962 58.779,190.816 58.873,190.816 58.988 C 190.816 59.102,190.524 59.495,190.167 59.860 C 189.742 60.295,189.519 60.743,189.519 61.164 C 189.519 61.567,189.408 61.804,189.218 61.804 C 188.873 61.804,188.655 62.263,188.655 62.987 C 188.655 63.339,188.496 63.526,188.115 63.622 C 187.758 63.711,187.574 63.908,187.574 64.200 C 187.574 64.443,187.331 64.961,187.034 65.351 C 186.685 65.808,186.494 66.339,186.494 66.849 C 186.494 67.495,186.415 67.639,186.062 67.639 C 185.772 67.639,185.629 67.783,185.629 68.077 C 185.629 68.345,185.420 68.594,185.089 68.720 C 184.636 68.892,184.549 69.066,184.549 69.795 C 184.549 70.524,184.478 70.665,184.111 70.665 C 183.800 70.665,183.637 70.848,183.546 71.302 C 183.476 71.652,183.235 72.105,183.011 72.308 C 182.731 72.561,182.604 72.970,182.604 73.615 C 182.604 74.473,182.557 74.554,182.064 74.554 C 181.632 74.554,181.524 74.662,181.524 75.095 C 181.524 75.491,181.408 75.635,181.091 75.635 C 180.723 75.635,180.659 75.779,180.659 76.607 C 180.659 77.433,180.594 77.580,180.231 77.580 C 179.956 77.580,179.755 77.770,179.669 78.112 C 179.596 78.405,179.359 78.701,179.142 78.770 C 178.883 78.852,178.697 79.203,178.596 79.804 C 178.512 80.304,178.261 80.945,178.038 81.228 C 177.816 81.512,177.634 81.915,177.634 82.123 C 177.634 82.348,177.413 82.558,177.093 82.639 C 176.628 82.756,176.553 82.896,176.553 83.655 C 176.553 84.354,176.464 84.559,176.121 84.648 C 175.883 84.711,175.689 84.882,175.689 85.029 C 175.689 85.176,175.446 85.558,175.149 85.879 C 174.724 86.338,174.608 86.690,174.608 87.531 C 174.608 88.533,174.574 88.601,174.058 88.601 C 173.517 88.601,173.509 88.624,173.572 90.059 L 173.636 91.518 200.301 91.573 C 219.827 91.613,227.045 91.563,227.259 91.384 C 227.882 90.868,227.574 88.601,226.881 88.601 C 226.589 88.601,226.472 88.447,226.472 88.061 C 226.472 87.763,226.278 87.326,226.040 87.088 C 225.802 86.850,225.608 86.408,225.608 86.106 C 225.608 85.803,225.372 85.320,225.085 85.033 C 224.797 84.745,224.529 84.336,224.488 84.124 C 224.448 83.912,224.197 83.707,223.931 83.669 C 223.513 83.610,223.447 83.470,223.447 82.643 C 223.447 81.830,223.382 81.686,223.015 81.686 C 222.698 81.686,222.582 81.542,222.582 81.145 C 222.582 80.713,222.474 80.605,222.042 80.605 C 221.537 80.605,221.502 80.534,221.502 79.514 C 221.502 78.628,221.400 78.329,220.962 77.923 C 220.665 77.647,220.421 77.254,220.421 77.048 C 220.421 76.843,220.227 76.624,219.989 76.562 C 219.687 76.483,219.557 76.267,219.557 75.843 C 219.557 74.963,219.348 74.554,218.899 74.554 C 218.611 74.554,218.486 74.364,218.436 73.852 C 218.390 73.370,218.216 73.083,217.882 72.936 C 217.489 72.764,217.396 72.549,217.396 71.816 C 217.396 71.109,217.304 70.880,216.977 70.777 C 216.747 70.704,216.529 70.430,216.491 70.168 C 216.448 69.866,216.246 69.667,215.937 69.623 C 215.525 69.564,215.451 69.422,215.451 68.684 C 215.451 67.996,215.361 67.791,215.019 67.702 C 214.781 67.640,214.587 67.410,214.587 67.192 C 214.587 66.603,214.123 65.694,213.823 65.694 C 213.679 65.694,213.498 65.295,213.420 64.808 C 213.319 64.179,213.154 63.889,212.852 63.810 C 212.578 63.739,212.426 63.515,212.426 63.184 C 212.426 62.825,212.303 62.669,212.021 62.669 C 211.715 62.669,211.582 62.454,211.475 61.783 C 211.374 61.153,211.210 60.864,210.907 60.785 C 210.638 60.715,210.481 60.489,210.481 60.174 C 210.481 59.899,210.238 59.484,209.941 59.250 C 209.603 58.984,209.400 58.606,209.400 58.241 C 209.400 57.840,209.266 57.623,208.968 57.545 C 208.630 57.457,208.536 57.250,208.536 56.597 C 208.536 55.886,208.455 55.742,207.996 55.626 C 207.658 55.541,207.455 55.338,207.455 55.082 C 207.455 54.826,207.304 54.673,207.050 54.673 C 206.713 54.673,206.627 54.466,206.543 53.449 C 206.469 52.559,206.321 52.126,205.999 51.866 C 205.756 51.669,205.521 51.321,205.477 51.092 C 205.433 50.857,205.186 50.645,204.914 50.606 C 204.496 50.547,204.430 50.407,204.430 49.580 C 204.430 48.766,204.365 48.622,203.998 48.622 C 203.679 48.622,203.566 48.478,203.566 48.072 C 203.566 47.770,203.335 47.291,203.053 47.009 C 202.771 46.727,202.474 46.144,202.393 45.713 C 202.199 44.678,200.256 44.098,198.865 44.660 M201.326 50.621 C 201.909 51.855,202.397 52.671,202.781 53.055 C 202.987 53.261,203.211 53.709,203.279 54.051 C 203.348 54.393,203.478 54.673,203.569 54.673 C 203.660 54.673,203.931 55.092,204.172 55.604 C 204.412 56.116,204.763 56.662,204.952 56.819 C 205.140 56.975,205.294 57.224,205.294 57.372 C 205.294 57.519,205.489 57.888,205.727 58.190 C 205.964 58.492,206.159 58.937,206.159 59.179 C 206.159 59.421,206.342 59.747,206.565 59.903 C 206.948 60.172,207.290 60.750,208.266 62.777 C 208.495 63.252,208.843 63.775,209.041 63.938 C 209.239 64.101,209.400 64.417,209.400 64.640 C 209.400 64.863,209.486 65.046,209.590 65.046 C 209.695 65.046,209.907 65.362,210.062 65.748 C 210.217 66.135,210.569 66.725,210.844 67.061 C 211.120 67.397,211.345 67.799,211.345 67.953 C 211.345 68.108,211.491 68.355,211.668 68.503 C 211.846 68.650,212.104 69.147,212.242 69.606 C 212.379 70.066,212.672 70.604,212.891 70.803 C 213.111 71.001,213.290 71.279,213.290 71.421 C 213.290 71.562,213.476 71.846,213.703 72.052 C 213.930 72.257,214.177 72.671,214.253 72.971 C 214.328 73.271,214.565 73.775,214.779 74.090 C 214.992 74.405,215.404 75.051,215.693 75.527 C 215.982 76.002,216.339 76.586,216.486 76.823 C 216.633 77.061,216.943 77.669,217.175 78.174 C 217.407 78.679,217.687 79.092,217.797 79.092 C 217.907 79.092,218.155 79.457,218.348 79.903 C 218.541 80.348,218.990 81.199,219.345 81.794 C 219.700 82.388,220.097 83.142,220.227 83.468 C 220.357 83.795,220.541 84.063,220.635 84.063 C 220.729 84.063,220.955 84.433,221.136 84.885 C 221.317 85.338,221.617 85.834,221.802 85.987 C 222.269 86.375,222.483 87.660,222.148 88.063 C 221.915 88.344,219.153 88.385,200.339 88.385 C 177.245 88.385,177.540 88.398,178.214 87.371 C 178.355 87.156,178.829 86.267,179.268 85.396 C 179.706 84.525,180.199 83.761,180.362 83.698 C 180.525 83.635,180.659 83.463,180.659 83.315 C 180.659 82.859,181.808 80.798,183.256 78.656 C 183.458 78.357,183.700 77.870,183.793 77.576 C 183.886 77.281,184.168 76.748,184.418 76.391 C 185.109 75.408,185.379 74.959,185.845 74.014 C 186.362 72.967,186.667 72.479,187.304 71.676 C 187.572 71.339,187.790 70.877,187.790 70.648 C 187.790 70.419,187.975 70.047,188.201 69.821 C 188.427 69.595,188.678 69.203,188.758 68.950 C 188.839 68.696,189.079 68.322,189.291 68.118 C 189.504 67.914,189.796 67.382,189.939 66.937 C 190.083 66.491,190.273 66.126,190.360 66.126 C 190.448 66.126,190.682 65.786,190.880 65.370 C 191.079 64.954,191.332 64.614,191.443 64.614 C 191.555 64.614,191.712 64.312,191.793 63.942 C 191.938 63.282,192.523 62.254,193.397 61.122 C 193.641 60.806,193.841 60.406,193.841 60.233 C 193.841 60.060,194.036 59.671,194.273 59.368 C 194.511 59.066,194.706 58.730,194.706 58.621 C 194.706 58.511,194.938 58.204,195.222 57.937 C 195.506 57.670,195.793 57.179,195.860 56.845 C 195.926 56.511,196.132 56.087,196.316 55.903 C 196.500 55.719,196.650 55.478,196.650 55.367 C 196.650 55.256,196.900 54.798,197.204 54.349 C 197.509 53.900,198.037 53.011,198.377 52.374 C 199.730 49.838,200.687 49.269,201.326 50.621 M220.374 95.765 C 219.953 95.919,219.752 96.174,219.663 96.666 C 219.385 98.217,219.654 136.975,219.946 137.266 C 220.235 137.556,240.877 137.823,241.977 137.551 L 242.464 137.431 242.464 122.524 L 242.464 107.618 236.521 107.618 L 230.578 107.618 230.578 102.618 C 230.578 97.138,230.437 96.204,229.543 95.782 C 228.851 95.455,221.260 95.441,220.374 95.765 M227.806 98.251 C 228.166 98.577,228.201 99.033,228.201 103.410 C 228.201 106.051,228.262 108.516,228.336 108.887 L 228.471 109.562 234.047 109.562 C 238.828 109.562,239.672 109.611,239.963 109.902 C 240.310 110.249,240.509 134.058,240.171 134.936 C 240.055 135.240,239.053 135.278,231.105 135.278 L 222.171 135.278 221.945 134.468 C 221.647 133.392,221.632 100.026,221.930 98.987 C 222.226 97.957,222.389 97.900,225.051 97.896 C 226.947 97.894,227.488 97.963,227.806 98.251 M133.602 119.557 L 133.657 137.547 144.330 137.603 C 152.043 137.644,155.084 137.591,155.297 137.414 C 155.543 137.211,155.592 134.160,155.588 119.368 L 155.583 101.567 144.565 101.567 L 133.547 101.567 133.602 119.557 M153.473 103.660 C 154.060 104.223,154.079 104.309,154.079 106.473 L 154.079 108.704 153.377 109.133 C 152.728 109.528,152.277 109.561,147.441 109.562 C 142.242 109.562,142.207 109.565,141.931 110.049 C 141.396 110.985,141.541 128.511,142.085 128.740 C 142.443 128.891,145.034 128.933,147.110 128.821 L 147.596 128.795 147.596 124.153 C 147.596 118.772,147.911 119.325,144.787 119.233 L 142.950 119.179 142.889 116.611 C 142.803 113.009,142.457 113.236,148.030 113.236 C 152.333 113.236,152.530 113.255,153.237 113.731 L 153.971 114.226 154.029 124.374 C 154.088 134.504,154.087 134.523,153.627 134.900 C 153.043 135.380,135.578 135.492,135.105 135.019 C 134.741 134.654,134.730 104.568,135.094 103.876 C 135.509 103.089,135.541 103.086,144.343 103.083 L 152.867 103.079 153.473 103.660 M157.796 107.877 C 157.526 108.147,157.401 135.725,157.666 136.711 C 157.734 136.963,158.029 137.280,158.321 137.413 C 158.889 137.671,179.444 137.776,180.101 137.524 C 180.408 137.406,180.443 135.882,180.443 122.505 L 180.443 107.618 175.506 107.618 C 168.987 107.618,169.761 106.221,169.686 118.121 L 169.625 127.715 169.091 127.715 L 168.558 127.715 168.558 118.084 C 168.558 111.859,168.478 108.306,168.334 108.035 C 168.059 107.523,158.297 107.376,157.796 107.877 M182.748 107.762 C 182.383 108.127,182.591 136.943,182.961 137.251 C 183.240 137.482,184.351 137.547,188.006 137.547 C 191.662 137.547,192.773 137.482,193.052 137.251 C 193.374 136.983,193.409 136.014,193.409 127.256 L 193.409 117.558 194.487 117.558 L 195.566 117.558 195.622 127.553 L 195.678 137.547 200.108 137.608 C 202.545 137.642,204.757 137.616,205.024 137.550 L 205.511 137.431 205.511 127.495 L 205.511 117.558 206.483 117.558 L 207.455 117.558 207.455 127.347 C 207.455 134.673,207.521 137.202,207.715 137.396 C 207.989 137.670,216.374 137.785,217.054 137.524 C 217.361 137.406,217.396 135.882,217.396 122.505 L 217.396 107.618 200.144 107.618 C 190.656 107.618,182.827 107.682,182.748 107.762 M244.769 107.762 C 244.689 107.841,244.625 114.504,244.625 122.570 L 244.625 137.234 245.179 137.445 C 245.954 137.739,266.561 137.727,267.113 137.432 C 267.520 137.214,267.531 136.819,267.531 122.413 L 267.531 107.618 256.222 107.618 C 250.002 107.618,244.848 107.682,244.769 107.762 M165.973 110.000 C 166.088 110.184,166.177 114.174,166.180 119.395 C 166.184 124.387,166.259 128.582,166.346 128.718 C 166.521 128.992,171.535 128.984,171.980 128.709 C 172.165 128.595,172.231 126.156,172.231 119.506 L 172.231 110.458 172.801 110.010 C 173.517 109.447,177.253 109.345,177.971 109.869 C 178.427 110.202,178.753 131.654,178.340 134.120 L 178.164 135.170 169.437 135.227 C 161.546 135.278,160.671 135.249,160.311 134.923 C 159.804 134.463,159.681 110.808,160.184 110.162 C 160.711 109.485,165.561 109.349,165.973 110.000 M215.442 110.128 L 216.113 110.693 216.052 122.531 C 215.979 136.737,216.382 135.278,212.534 135.278 C 208.727 135.278,209.087 136.293,209.025 125.386 C 208.963 114.470,209.260 115.613,206.481 115.613 C 203.297 115.613,203.566 114.702,203.566 125.508 C 203.566 131.253,203.486 134.591,203.342 134.860 C 203.032 135.439,197.217 135.509,196.998 134.936 C 196.926 134.748,196.867 130.628,196.867 125.779 C 196.867 120.931,196.806 116.660,196.731 116.288 L 196.596 115.613 194.025 115.613 C 190.744 115.613,191.032 114.638,191.032 125.741 C 191.032 132.467,190.966 134.826,190.773 135.019 C 190.183 135.608,185.216 135.356,184.976 134.724 C 184.639 133.839,184.696 110.597,185.035 110.169 C 185.488 109.598,185.513 109.597,200.362 109.579 L 214.770 109.562 215.442 110.128 M265.159 109.995 C 265.482 110.507,265.436 134.694,265.111 135.019 C 264.738 135.392,247.417 135.392,247.045 135.019 C 246.849 134.823,246.786 131.747,246.786 122.497 L 246.786 110.235 247.272 109.893 C 247.982 109.393,264.839 109.489,265.159 109.995 M228.336 116.288 C 228.146 117.239,228.173 128.423,228.366 128.693 C 228.553 128.953,233.359 128.981,233.766 128.724 C 234.114 128.504,234.157 116.676,233.812 116.031 C 233.610 115.654,233.338 115.613,231.030 115.613 L 228.471 115.613 228.336 116.288 M253.366 116.318 C 253.309 116.468,253.287 119.361,253.319 122.747 L 253.377 128.903 255.970 128.907 C 259.812 128.912,259.427 129.622,259.427 122.528 L 259.427 116.498 258.931 116.272 C 258.192 115.935,253.498 115.974,253.366 116.318 M231.659 122.636 L 231.659 127.715 231.118 127.715 L 230.578 127.715 230.578 122.636 L 230.578 117.558 231.118 117.558 L 231.659 117.558 231.659 122.636 M256.726 122.636 L 256.726 127.715 256.078 127.715 L 255.429 127.715 255.429 122.636 L 255.429 117.558 256.078 117.558 L 256.726 117.558 256.726 122.636 M145.651 124.581 L 145.651 127.715 144.571 127.715 L 143.490 127.715 143.490 124.581 L 143.490 121.448 144.571 121.448 L 145.651 121.448 145.651 124.581 " stroke="none" fill="#040404" fill-rule="evenodd"></path><path id="path3" d="M222.416 98.074 C 222.266 98.169,222.047 98.580,221.930 98.987 C 221.632 100.026,221.647 133.392,221.945 134.468 L 222.171 135.278 231.105 135.278 C 239.053 135.278,240.055 135.240,240.171 134.936 C 240.509 134.058,240.310 110.249,239.963 109.902 C 239.672 109.611,238.828 109.562,234.047 109.562 L 228.471 109.562 228.336 108.887 C 228.262 108.516,228.201 106.051,228.201 103.410 C 228.201 97.518,228.415 97.892,225.051 97.896 C 223.752 97.898,222.567 97.978,222.416 98.074 M227.358 99.162 C 227.735 99.628,227.769 100.078,227.769 104.698 C 227.769 108.622,227.832 109.778,228.057 109.964 C 228.247 110.122,230.283 110.223,234.053 110.261 L 239.762 110.319 239.822 122.096 C 239.855 128.574,239.829 134.092,239.764 134.360 L 239.646 134.846 231.480 134.846 C 224.769 134.846,223.239 134.791,222.894 134.539 C 222.485 134.241,222.473 133.772,222.415 116.922 L 222.356 99.610 222.955 99.055 C 223.797 98.275,226.696 98.345,227.358 99.162 M135.581 103.245 C 134.873 103.718,134.846 104.309,134.846 119.554 C 134.846 131.092,134.909 134.822,135.105 135.019 C 135.578 135.492,153.043 135.380,153.627 134.900 C 154.087 134.523,154.088 134.504,154.029 124.374 L 153.971 114.226 153.237 113.731 C 152.530 113.255,152.333 113.236,148.030 113.236 C 142.457 113.236,142.803 113.009,142.889 116.611 L 142.950 119.179 144.787 119.233 C 147.911 119.325,147.596 118.772,147.596 124.153 L 147.596 128.795 147.110 128.821 C 145.034 128.933,142.443 128.891,142.085 128.740 C 141.541 128.511,141.396 110.985,141.931 110.049 C 142.207 109.565,142.242 109.562,147.441 109.562 C 152.277 109.561,152.728 109.528,153.377 109.133 L 154.079 108.704 154.079 106.473 C 154.079 104.309,154.060 104.223,153.473 103.660 L 152.867 103.079 144.343 103.083 C 139.654 103.085,135.711 103.157,135.581 103.245 M152.914 104.322 C 153.103 104.571,153.203 105.380,153.208 106.695 C 153.216 109.129,153.861 108.896,146.926 108.967 C 142.802 109.010,141.531 109.089,141.254 109.319 C 140.752 109.735,140.704 128.449,141.203 129.132 C 141.475 129.505,141.835 129.559,144.428 129.622 C 148.501 129.720,148.244 130.085,148.244 124.190 C 148.244 118.550,148.412 118.885,145.543 118.806 L 143.382 118.747 143.382 116.478 L 143.382 114.209 148.001 114.150 C 151.225 114.109,152.709 114.166,152.917 114.339 C 153.239 114.606,153.336 133.067,153.021 134.198 L 152.871 134.738 144.561 134.790 C 139.558 134.822,136.122 134.760,135.927 134.636 C 135.402 134.302,135.325 104.921,135.848 104.344 C 136.392 103.743,152.458 103.722,152.914 104.322 M160.886 109.702 C 159.906 109.958,159.914 109.862,159.914 122.536 C 159.914 133.943,159.934 134.581,160.311 134.923 C 160.671 135.249,161.546 135.278,169.437 135.227 L 178.164 135.170 178.340 134.120 C 178.753 131.654,178.427 110.202,177.971 109.869 C 177.253 109.345,173.517 109.447,172.801 110.010 L 172.231 110.458 172.231 119.506 C 172.231 126.156,172.165 128.595,171.980 128.709 C 171.535 128.984,166.521 128.992,166.346 128.718 C 166.259 128.582,166.184 124.387,166.180 119.395 C 166.177 114.174,166.088 110.184,165.973 110.000 C 165.767 109.675,161.867 109.447,160.886 109.702 M185.629 109.712 C 184.770 110.019,184.765 110.095,184.765 122.339 C 184.765 129.503,184.848 134.388,184.976 134.724 C 185.216 135.356,190.183 135.608,190.773 135.019 C 190.966 134.826,191.032 132.467,191.032 125.741 C 191.032 114.638,190.744 115.613,194.025 115.613 L 196.596 115.613 196.731 116.288 C 196.806 116.660,196.867 120.931,196.867 125.779 C 196.867 130.628,196.926 134.748,196.998 134.936 C 197.217 135.509,203.032 135.439,203.342 134.860 C 203.486 134.591,203.566 131.253,203.566 125.508 C 203.566 114.702,203.297 115.613,206.481 115.613 C 209.260 115.613,208.963 114.470,209.025 125.386 C 209.087 136.293,208.727 135.278,212.534 135.278 C 216.382 135.278,215.979 136.737,216.052 122.531 L 216.113 110.693 215.442 110.128 L 214.770 109.562 200.362 109.579 C 192.437 109.589,185.808 109.649,185.629 109.712 M247.272 109.893 L 246.786 110.235 246.786 122.497 C 246.786 131.747,246.849 134.823,247.045 135.019 C 247.417 135.392,264.738 135.392,265.111 135.019 C 265.436 134.694,265.482 110.507,265.159 109.995 C 264.839 109.489,247.982 109.393,247.272 109.893 M165.489 110.470 C 165.682 110.664,165.748 113.041,165.748 119.837 C 165.748 128.537,165.767 128.961,166.162 129.319 C 166.687 129.794,172.226 129.753,172.707 129.271 C 172.925 129.053,173.012 126.900,173.096 119.654 L 173.204 110.319 175.473 110.319 L 177.742 110.319 177.742 122.528 L 177.742 134.738 169.530 134.795 C 162.002 134.847,161.296 134.821,161.048 134.484 C 160.654 133.947,160.654 110.513,161.048 110.354 C 161.629 110.119,165.233 110.214,165.489 110.470 M214.967 122.288 C 215.031 136.125,215.279 134.846,212.534 134.846 C 209.842 134.846,210.076 135.760,210.003 124.959 C 209.954 117.674,209.879 115.573,209.660 115.354 C 209.204 114.896,204.125 114.832,203.449 115.275 L 202.922 115.620 202.866 125.179 L 202.809 134.738 200.432 134.793 C 197.069 134.870,197.416 135.977,197.349 124.967 C 197.280 113.812,197.674 114.965,193.932 114.965 C 190.007 114.965,190.402 113.857,190.333 125.076 C 190.284 133.113,190.230 134.459,189.951 134.635 C 189.594 134.860,186.298 134.923,185.755 134.715 C 185.296 134.539,185.225 110.539,185.683 110.353 C 185.832 110.293,192.469 110.260,200.432 110.281 L 214.911 110.319 214.967 122.288 M264.614 122.528 L 264.614 134.738 256.088 134.738 L 247.561 134.738 247.411 134.198 C 247.126 133.172,247.190 110.757,247.480 110.468 C 247.678 110.270,249.796 110.220,256.178 110.262 L 264.614 110.319 264.614 122.528 M228.147 115.198 C 227.532 115.557,227.570 129.106,228.187 129.436 C 228.867 129.800,233.510 129.719,234.262 129.330 L 234.900 129.000 234.900 122.319 C 234.900 114.248,235.256 114.962,231.232 114.971 C 229.743 114.975,228.355 115.077,228.147 115.198 M253.096 115.440 C 252.905 115.631,252.836 117.481,252.836 122.420 C 252.836 127.359,252.905 129.210,253.096 129.400 C 253.416 129.721,258.594 129.761,259.413 129.449 L 259.968 129.238 259.968 122.469 C 259.968 117.492,259.899 115.631,259.708 115.440 C 259.531 115.263,258.484 115.181,256.402 115.181 C 254.320 115.181,253.273 115.263,253.096 115.440 M233.812 116.031 C 234.157 116.676,234.114 128.504,233.766 128.724 C 233.359 128.981,228.553 128.953,228.366 128.693 C 228.173 128.423,228.146 117.239,228.336 116.288 L 228.471 115.613 231.030 115.613 C 233.338 115.613,233.610 115.654,233.812 116.031 M258.931 116.272 L 259.427 116.498 259.427 122.528 C 259.427 129.622,259.812 128.912,255.970 128.907 L 253.377 128.903 253.319 122.747 C 253.287 119.361,253.309 116.468,253.366 116.318 C 253.498 115.974,258.192 115.935,258.931 116.272 " stroke="none" fill="#15046f" fill-rule="evenodd"></path><path id="path4" d="M199.498 50.579 C 199.222 50.928,198.717 51.736,198.377 52.374 C 198.037 53.011,197.509 53.900,197.204 54.349 C 196.900 54.798,196.650 55.256,196.650 55.367 C 196.650 55.478,196.500 55.719,196.316 55.903 C 196.132 56.087,195.926 56.511,195.860 56.845 C 195.793 57.179,195.506 57.670,195.222 57.937 C 194.938 58.204,194.706 58.511,194.706 58.621 C 194.706 58.730,194.511 59.066,194.273 59.368 C 194.036 59.671,193.841 60.060,193.841 60.233 C 193.841 60.406,193.641 60.806,193.397 61.122 C 192.523 62.254,191.938 63.282,191.793 63.942 C 191.712 64.312,191.555 64.614,191.443 64.614 C 191.332 64.614,191.079 64.954,190.880 65.370 C 190.682 65.786,190.448 66.126,190.360 66.126 C 190.273 66.126,190.083 66.491,189.939 66.937 C 189.796 67.382,189.504 67.914,189.291 68.118 C 189.079 68.322,188.839 68.696,188.758 68.950 C 188.678 69.203,188.427 69.595,188.201 69.821 C 187.975 70.047,187.790 70.419,187.790 70.648 C 187.790 70.877,187.572 71.339,187.304 71.676 C 186.667 72.479,186.362 72.967,185.845 74.014 C 185.379 74.959,185.109 75.408,184.418 76.391 C 184.168 76.748,183.886 77.281,183.793 77.576 C 183.700 77.870,183.458 78.357,183.256 78.656 C 181.808 80.798,180.659 82.859,180.659 83.315 C 180.659 83.463,180.525 83.635,180.362 83.698 C 180.199 83.761,179.706 84.525,179.268 85.396 C 178.829 86.267,178.355 87.156,178.214 87.371 C 177.540 88.398,177.245 88.385,200.339 88.385 C 219.153 88.385,221.915 88.344,222.148 88.063 C 222.483 87.660,222.269 86.375,221.802 85.987 C 221.617 85.834,221.317 85.338,221.136 84.885 C 220.955 84.433,220.729 84.063,220.635 84.063 C 220.541 84.063,220.357 83.795,220.227 83.468 C 220.097 83.142,219.700 82.388,219.345 81.794 C 218.990 81.199,218.541 80.348,218.348 79.903 C 218.155 79.457,217.907 79.092,217.797 79.092 C 217.687 79.092,217.407 78.679,217.175 78.174 C 216.943 77.669,216.633 77.061,216.486 76.823 C 216.339 76.586,215.982 76.002,215.693 75.527 C 215.404 75.051,214.992 74.405,214.779 74.090 C 214.565 73.775,214.328 73.271,214.253 72.971 C 214.177 72.671,213.930 72.257,213.703 72.052 C 213.476 71.846,213.290 71.562,213.290 71.421 C 213.290 71.279,213.111 71.001,212.891 70.803 C 212.672 70.604,212.379 70.066,212.242 69.606 C 212.104 69.147,211.846 68.650,211.668 68.503 C 211.491 68.355,211.345 68.108,211.345 67.953 C 211.345 67.799,211.120 67.397,210.844 67.061 C 210.569 66.725,210.217 66.135,210.062 65.748 C 209.907 65.362,209.695 65.046,209.590 65.046 C 209.486 65.046,209.400 64.863,209.400 64.640 C 209.400 64.417,209.239 64.101,209.041 63.938 C 208.843 63.775,208.495 63.252,208.266 62.777 C 207.290 60.750,206.948 60.172,206.565 59.903 C 206.342 59.747,206.159 59.421,206.159 59.179 C 206.159 58.937,205.964 58.492,205.727 58.190 C 205.489 57.888,205.294 57.519,205.294 57.372 C 205.294 57.224,205.140 56.975,204.952 56.819 C 204.763 56.662,204.412 56.116,204.172 55.604 C 203.931 55.092,203.660 54.673,203.569 54.673 C 203.478 54.673,203.348 54.393,203.279 54.051 C 203.211 53.709,202.987 53.261,202.781 53.055 C 202.397 52.671,201.909 51.855,201.326 50.621 C 200.901 49.720,200.189 49.704,199.498 50.579 M201.005 51.585 C 201.986 53.134,202.447 53.930,203.231 55.429 C 203.666 56.261,204.148 57.040,204.302 57.159 C 204.457 57.278,204.660 57.619,204.753 57.915 C 204.847 58.212,205.276 58.990,205.708 59.643 C 206.140 60.297,206.760 61.380,207.086 62.049 C 207.412 62.719,207.969 63.632,208.323 64.078 C 208.678 64.524,208.968 65.031,208.968 65.204 C 208.968 65.377,209.163 65.765,209.400 66.067 C 209.638 66.370,209.833 66.738,209.833 66.885 C 209.833 67.033,209.992 67.286,210.186 67.448 C 210.381 67.609,210.726 68.131,210.953 68.609 C 211.757 70.300,212.260 71.206,212.430 71.270 C 212.525 71.306,212.866 71.876,213.189 72.536 C 213.512 73.195,214.152 74.333,214.610 75.063 C 215.069 75.794,215.596 76.728,215.780 77.140 C 215.965 77.552,216.191 77.941,216.282 78.004 C 216.373 78.068,217.070 79.238,217.831 80.605 C 218.591 81.972,219.328 83.187,219.468 83.306 C 219.607 83.425,219.779 83.772,219.849 84.077 C 219.920 84.382,220.175 84.859,220.416 85.136 C 220.656 85.414,220.854 85.733,220.854 85.844 C 220.854 85.956,221.048 86.295,221.286 86.597 C 222.236 87.805,223.485 87.736,200.409 87.736 L 179.100 87.736 179.244 87.159 C 179.324 86.842,179.578 86.342,179.808 86.050 C 180.038 85.757,180.227 85.348,180.227 85.140 C 180.227 84.933,180.371 84.645,180.547 84.499 C 180.722 84.353,181.003 83.976,181.171 83.662 C 182.466 81.232,183.434 79.569,183.941 78.901 C 184.157 78.618,184.333 78.253,184.333 78.090 C 184.333 77.927,184.770 77.168,185.305 76.403 C 185.840 75.637,186.278 74.866,186.278 74.687 C 186.278 74.509,186.383 74.299,186.512 74.219 C 186.640 74.140,186.929 73.648,187.152 73.126 C 187.376 72.604,187.652 72.177,187.766 72.177 C 187.880 72.177,188.083 71.845,188.217 71.438 C 188.351 71.032,188.602 70.582,188.774 70.439 C 188.946 70.296,189.087 70.012,189.087 69.807 C 189.087 69.602,189.277 69.263,189.509 69.053 C 189.740 68.844,190.286 67.932,190.721 67.027 C 191.157 66.122,191.642 65.282,191.799 65.160 C 191.957 65.038,192.439 64.257,192.872 63.425 C 193.304 62.593,193.894 61.524,194.181 61.048 C 194.469 60.573,194.902 59.774,195.143 59.274 C 195.385 58.774,195.678 58.305,195.795 58.233 C 195.913 58.160,196.152 57.792,196.328 57.414 C 196.503 57.035,196.938 56.240,197.295 55.646 C 197.652 55.051,198.045 54.330,198.170 54.042 C 198.294 53.755,198.523 53.415,198.679 53.286 C 198.834 53.158,199.094 52.712,199.257 52.296 C 199.485 51.713,200.174 50.854,200.465 50.791 C 200.483 50.787,200.726 51.144,201.005 51.585 " stroke="none" fill="#047048" fill-rule="evenodd"></path></g></svg>